<?xml version="1.0" standalone="no"?>
<!DOCTYPE svg PUBLIC "-//W3C//DTD SVG 20010904//EN"
 "http://www.w3.org/TR/2001/REC-SVG-20010904/DTD/svg10.dtd">
<svg version="1.0" xmlns="http://www.w3.org/2000/svg"
 width="500.000000pt" height="500.000000pt" viewBox="0 0 500.000000 500.000000"
 preserveAspectRatio="xMidYMid meet">

<g transform="translate(0.000000,500.000000) scale(0.100000,-0.100000)"
fill="#ffffff" stroke="none">
<path d="M3121 4990 c-96 -20 -195 -109 -228 -203 -29 -84 -23 -172 15 -250
36 -72 80 -116 155 -150 l47 -22 0 -277 0 -278 -265 0 -265 0 0 109 0 108 44
17 c64 24 130 87 163 154 39 80 40 191 2 273 -55 117 -159 183 -289 184 -66 0
-85 -5 -142 -33 -70 -34 -107 -72 -149 -152 -20 -37 -24 -60 -24 -130 0 -73 4
-93 28 -142 33 -67 99 -130 163 -154 l44 -17 0 -108 0 -109 -377 0 c-298 0
-391 -3 -441 -15 -207 -49 -371 -226 -404 -439 l-13 -76 -275 0 -276 0 -22 45
c-54 112 -149 175 -272 183 -138 8 -242 -53 -302 -176 -29 -58 -33 -76 -32
-142 1 -97 28 -163 95 -225 71 -66 127 -89 219 -89 60 0 86 5 132 26 68 31
130 93 161 159 l22 49 277 0 278 0 0 -265 0 -265 -224 0 -224 0 -26 53 c-34
71 -87 124 -155 156 -81 38 -193 37 -273 -2 -62 -30 -115 -83 -150 -149 -19
-36 -23 -58 -23 -138 0 -84 3 -101 27 -146 32 -60 93 -118 157 -147 67 -31
187 -30 258 2 62 27 136 103 164 166 l20 45 224 0 225 0 0 -368 c0 -223 4
-392 11 -428 40 -216 221 -391 442 -426 l77 -13 0 -277 0 -277 -47 -21 c-66
-29 -126 -91 -158 -163 -24 -53 -27 -69 -23 -141 9 -156 101 -263 258 -297 58
-12 150 0 204 28 55 28 113 92 142 156 70 155 10 330 -141 408 l-65 34 0 278
0 277 265 0 265 0 0 -225 0 -225 -52 -24 c-66 -29 -120 -81 -156 -149 -23 -45
-27 -64 -27 -137 0 -73 4 -93 28 -142 52 -107 146 -169 267 -176 60 -3 87 0
131 17 75 29 141 88 176 159 39 80 40 191 2 273 -33 69 -89 125 -156 155 l-53
24 0 225 0 225 378 0 c417 0 457 5 565 62 155 83 260 237 283 415 l7 53 277 0
277 0 19 -42 c47 -107 151 -178 270 -186 137 -9 246 53 306 175 28 58 33 77
32 143 0 88 -22 145 -80 210 -152 168 -451 120 -530 -87 l-17 -43 -278 0 -279
0 0 265 0 265 109 0 108 0 17 -44 c24 -64 87 -130 154 -163 76 -38 191 -40
267 -5 183 84 246 304 135 469 -140 209 -462 178 -557 -52 l-18 -45 -107 0
-107 0 -3 403 -3 402 -26 67 c-74 191 -230 320 -421 350 l-78 13 0 276 0 276
43 19 c63 28 126 91 158 159 54 112 33 253 -51 347 -68 78 -201 120 -309 98z
m158 -187 c61 -47 83 -148 43 -202 -37 -51 -82 -73 -138 -69 -66 6 -108 35
-129 93 -30 76 4 157 80 191 39 18 110 12 144 -13z m-709 -334 c96 -54 106
-186 18 -253 -71 -53 -181 -27 -223 54 -34 66 -5 159 64 198 46 27 93 28 141
1z m852 -861 c79 -37 142 -98 181 -177 l32 -66 0 -865 0 -865 -32 -66 c-39
-79 -102 -140 -181 -177 l-57 -27 -865 0 -865 0 -57 27 c-80 37 -149 105 -184
181 l-29 62 0 865 0 865 27 57 c32 69 98 142 153 170 92 48 71 47 970 45 l850
-2 57 -27z m-3034 -282 c54 -28 75 -62 79 -124 5 -72 -17 -110 -81 -142 -168
-81 -303 163 -143 260 38 23 106 26 145 6z m112 -698 c54 -37 75 -73 75 -128
0 -146 -191 -203 -272 -81 -29 44 -31 113 -3 159 43 70 136 93 200 50z m3910
0 c54 -37 75 -73 75 -128 0 -146 -191 -203 -272 -81 -29 44 -31 113 -3 159 43
70 136 93 200 50z m348 -695 c92 -69 93 -190 3 -250 -25 -17 -48 -23 -88 -23
-49 0 -58 4 -95 38 -37 35 -42 45 -46 95 -5 68 20 117 76 147 45 25 112 21
150 -7z m-2188 -1374 c96 -54 106 -186 18 -253 -71 -53 -181 -27 -223 54 -34
66 -5 159 64 198 46 27 93 28 141 1z m-684 -108 c68 -41 91 -149 46 -210 -83
-111 -243 -81 -271 50 -14 66 25 145 84 169 37 16 109 11 141 -9z"/>
</g>
</svg>
